#!OML:ASF F:\VICON\USERDATA\INSTALL\rory3\rory3.ASF
:FULLY-SPECIFIED
:DEGREES
800
root 0.4321 17.8739 5.96655 -528.281 84.3046 -164.52
lowerback 22.9235 -0.609562 -2.46608
upperback 2.96305 -0.536164 5.17562
thorax -9.46697 0.0779443 7.34667
lowerneck -12.029 -0.6939 -2.32504
upperneck 19.7622 0.292545 -2.39656
head 8.11358 -0.169098 -0.363178
rclavicle 1.98785e-015 -6.36111e-015
rhumerus -51.2317 -24.3505 -61.9515
rradius 81.0525
rwrist -35.2097
rhand -24.1433 -1.72689
rfingers 7.12502
rthumb 2.33896 -31.6938
lclavicle 1.98785e-015 -6.36111e-015
lhumerus -47.9623 9.93662 79.1796
lradius 46.1387
lwrist 15.0072
lhand -14.3879 50.9257
lfingers 7.12502
lthumb 11.7551 80.5758
rfemur -15.3308 2.94869 23.9342
rtibia 40.2561
rfoot -20.3509 -7.84717
rtoes 34.7371
lfemur -16.945 -7.92397 -18.0825
ltibia 39.1368
lfoot -13.1738 -3.56874
ltoes 15.4888
801
root 0.417837 17.8642 5.98365 -529.076 83.9545 -165.406
lowerback 22.8754 -0.613564 -2.45326
upperback 3.01664 -0.541763 5.13302
thorax -9.38077 0.0707003 7.28731
lowerneck -11.8708 -0.532592 -2.13377
upperneck 19.479 0.494979 -2.57723
head 7.99105 -0.0728489 -0.432612
rclavicle -1.2921e-014 9.38264e-014
rhumerus -52.4214 -25.3737 -60.6569
rradius 82.9954
rwrist -35.9041
rhand -22.3895 -1.29952
rfingers 7.12502
rthumb 4.0326 -31.2411
lclavicle -1.2921e-014 9.38264e-014
lhumerus -47.991 9.91796 79.1214
lradius 46.0171
lwrist 14.4873
lhand -14.0032 50.7362
lfingers 7.12502
lthumb 12.126 80.3648
rfemur -15.567 2.46894 24.1599
rtibia 40.3316
rfoot -19.7284 -9.26984
rtoes 30.0441
lfemur -17.3419 -7.16484 -17.9734
ltibia 39.3509
lfoot -13.3052 -4.08797
ltoes 11.3765
802
root 0.406275 17.8357 6.00307 -532.112 83.7291 -168.509
lowerback 22.8773 -0.573378 -2.62489
upperback 3.02281 -0.560634 4.92395
thorax -9.37172 0.0601514 7.15556
lowerneck -11.7859 -0.498456 -2.0819
upperneck 19.3874 0.47823 -2.36569
head 7.94372 -0.0557711 -0.372589
rclavicle 1.86858e-014 -6.04305e-014
rhumerus -53.7297 -26.3379 -59.2869
rradius 84.9232
rwrist -37.2528
rhand -19.9891 -1.68886
rfingers 7.12502
rthumb 6.35032 -31.5737
lclavicle 1.86858e-014 -6.04305e-014
lhumerus -48.1079 9.42927 78.9617
lradius 45.934
lwrist 14.2844
lhand -13.719 50.617
lfingers 7.12502
lthumb 12.4001 80.2292
rfemur -15.8692 0.870155 24.3718
rtibia 40.3251
rfoot -17.2705 -12.0833
rtoes 11.9857
lfemur -17.6421 -7.79837 -18.2339
ltibia 39.7265
lfoot -14.007 -3.35251
ltoes 8.55869
803
root 0.400803 17.8665 6.03042 -532.263 83.3866 -168.809
lowerback 22.784 -0.645154 -2.29391
upperback 2.97788 -0.6035 4.69706
thorax -9.37348 0.0205407 6.71347
lowerneck -11.8237 -0.418408 -1.97404
upperneck 19.4879 0.533188 -2.17965
head 7.9828 -0.00508539 -0.323634
rclavicle 2.10712e-014 3.97569e-015
rhumerus -55.0319 -27.3017 -58.064
rradius 86.7402
rwrist -38.5482
rhand -17.8996 -1.9364
rfingers 7.12502
rthumb 8.36727 -31.7507
lclavicle 2.10712e-014 3.97569e-015
lhumerus -48.2822 8.86091 78.6577
lradius 45.993
lwrist 14.4748
lhand -13.5313 50.8556
lfingers 7.12502
lthumb 12.581 80.4568
rfemur -15.7702 2.97485 23.8927
rtibia 40.4066
rfoot -20.8644 -8.61078
rtoes 36.0157
lfemur -17.9128 -7.69713 -18.0533
ltibia 39.8384
lfoot -14.299 -3.64349
ltoes 6.88767
804
root 0.399616 17.8285 6.04198 -531.991 83.0493 -168.426
lowerback 22.9396 -0.701227 -1.89506
upperback 2.9809 -0.598474 4.50039
thorax -9.46189 0.00688891 6.26127
lowerneck -11.7166 -0.284449 -1.59695
upperneck 19.5155 0.655056 -2.24212
head 7.97262 0.0758478 -0.394389
rclavicle 1.72943e-014 -4.77083e-015
rhumerus -56.3376 -28.0733 -56.9577
rradius 88.432
rwrist -39.6109
rhand -16.3189 -1.3759
rfingers 7.12502
rthumb 9.89245 -31.1235
lclavicle 1.72943e-014 -4.77083e-015
lhumerus -48.493 8.55097 78.4019
lradius 46.1233
lwrist 14.8285
lhand -13.9341 50.9673
lfingers 7.12502
lthumb 12.1926 80.592
rfemur -15.8973 0.491805 24.6613
rtibia 40.263
rfoot -17.2638 -12.6913
rtoes 11.6206
lfemur -18.149 -7.36215 -17.9024
ltibia 40.2862
lfoot -14.7172 -4.0514
ltoes 5.47141
805
root 0.392161 17.8593 6.06922 -531.933 82.5904 -168.308
lowerback 22.9923 -0.749555 -1.88999
upperback 3.0619 -0.652184 4.51854
thorax -9.39247 -0.0185664 6.29368
lowerneck -11.771 -0.176495 -1.60242
upperneck 19.4902 0.784829 -2.15105
head 7.97402 0.144974 -0.350095
rclavicle 5.50634e-014 -8.74653e-015
rhumerus -56.8144 -28.2465 -56.0985
rradius 89.733
rwrist -40.6886
rhand -15.5226 -1.12602
rfingers 7.12502
rthumb 10.6607 -30.8356
lclavicle 5.50634e-014 -8.74653e-015
lhumerus -48.5439 8.90076 78.2558
lradius 46.1232
lwrist 14.652
lhand -14.2038 50.8001
lfingers 7.12502
lthumb 11.9326 80.4401
rfemur -15.4813 2.73532 24.2316
rtibia 40.1852
rfoot -21.2016 -9.09433
rtoes 37.0577
lfemur -18.2154 -6.99775 -17.691
ltibia 40.4466
lfoot -15.1993 -4.36551
ltoes 4.56561
806
root 0.384184 17.829 6.09177 -528.136 81.8943 -164.293
lowerback 23.2416 -0.898181 -1.36759
upperback 3.09529 -0.677251 4.70554
thorax -9.49112 -0.0357509 6.2158
lowerneck -11.6366 -0.119139 -1.63526
upperneck 19.3599 0.844202 -2.06493
head 7.906 0.181204 -0.309892
rclavicle 1.55052e-014 1.03368e-014
rhumerus -57.1474 -28.1601 -55.4192
rradius 90.9335
rwrist -41.7465
rhand -14.9373 -1.12983
rfingers 7.12502
rthumb 11.2252 -30.8095
lclavicle 1.55052e-014 1.03368e-014
lhumerus -48.7537 9.0496 78.091
lradius 46.159
lwrist 14.5399
lhand -13.7425 50.7098
lfingers 7.12502
lthumb 12.3773 80.3234
rfemur -15.4378 0.26046 25.6677
rtibia 39.8824
rfoot -17.4859 -13.2967
rtoes 14.8461
lfemur -18.5103 -6.98427 -16.8633
ltibia 41.1101
lfoot -15.8658 -4.65656
ltoes 3.48233
807
root 0.37285 17.8533 6.11992 -525.793 81.3031 -161.705
lowerback 23.4724 -0.960776 -0.952496
upperback 3.16655 -0.626018 4.80534
thorax -9.54543 -0.0172332 6.07646
lowerneck -11.5205 -0.0599629 -1.49009
upperneck 19.295 0.910696 -2.14706
head 7.86431 0.217735 -0.354287
rclavicle -7.35503e-015 -1.82882e-014
rhumerus -57.4088 -28.2758 -54.7842
rradius 91.9662
rwrist -42.1527
rhand -13.6563 -1.00256
rfingers 7.12502
rthumb 12.4605 -30.6111
lclavicle -7.35503e-015 -1.82882e-014
lhumerus -48.8372 8.90519 77.9353
lradius 46.2237
lwrist 14.6884
lhand -13.2591 50.5016
lfingers 7.12502
lthumb 12.8434 80.0864
rfemur -14.8566 2.37893 25.8052
rtibia 39.7465
rfoot -21.3044 -10.1778
rtoes 37.4551
lfemur -18.5127 -6.96075 -16.1779
ltibia 41.4053
lfoot -16.4641 -4.80091
ltoes 1.48407
808
root 0.354087 17.8221 6.12104 -522.395 80.8692 -158.687
lowerback 23.1589 -0.954341 -0.398742
upperback 3.07469 -0.460806 4.98819
thorax -9.50541 0.0456147 5.89955
lowerneck -11.4975 0.0595112 -1.28295
upperneck 19.3084 1.08433 -2.37154
head 7.86748 0.295246 -0.445176
rclavicle -4.77083e-015 1.43125e-014
rhumerus -57.4367 -28.2205 -54.048
rradius 92.8283
rwrist -42.5663
rhand -12.2996 -0.494013
rfingers 7.12502
rthumb 13.7683 -30.0184
lclavicle -4.77083e-015 1.43125e-014
lhumerus -48.9142 8.8946 77.9288
lradius 46.2469
lwrist 14.7545
lhand -13.7785 50.06
lfingers 7.12502
lthumb 12.3427 79.6757
rfemur -15.5709 0.271641 26.9509
rtibia 39.4528
rfoot -17.671 -13.5634
rtoes 18.5704
lfemur -19.4608 -6.5182 -15.5727
ltibia 42.0803
lfoot -17.4078 -3.90546
ltoes -5.50046
809
root 0.339107 17.8439 6.12586 -523.227 80.578 -159.649
lowerback 23.1101 -0.897651 -0.420898
upperback 3.00241 -0.396097 4.97929
thorax -9.56708 0.07749 5.88369
lowerneck -11.4503 0.268796 -1.1421
upperneck 19.4343 1.38827 -2.52399
head 7.90475 0.437318 -0.488085
rclavicle 7.95139e-016 1.35174e-014
rhumerus -57.4344 -28.0851 -53.4228
rradius 93.6325
rwrist -42.3871
rhand -10.9604 -0.314285
rfingers 7.12502
rthumb 15.0587 -29.7466
lclavicle 7.95139e-016 1.35174e-014
lhumerus -49.1363 9.04753 77.8393
lradius 46.3652
lwrist 14.7099
lhand -13.8242 50.111
lfingers 7.12502
lthumb 12.2986 79.7293
rfemur -15.4983 1.60036 26.4422
rtibia 39.5099
rfoot -20.6797 -10.7567
rtoes 35.6061
lfemur -19.6692 -6.6812 -15.5666
ltibia 42.2077
lfoot -17.9717 -3.92967
ltoes -2.7773
810
root 0.330439 17.8298 6.13036 -522.375 80.1774 -158.604
lowerback 23.2297 -0.940875 -0.154973
upperback 3.05303 -0.368301 5.03339
thorax -9.57972 0.0860437 5.78331
lowerneck -11.3335 0.497251 -1.18849
upperneck 19.4069 1.70511 -2.48729
head 7.87661 0.59061 -0.436335
rclavicle -4.96962e-015 -2.14687e-014
rhumerus -57.1539 -27.911 -52.9729
rradius 94.3906
rwrist -41.4714
rhand -9.08589 -0.856947
rfingers 7.12502
rthumb 16.8638 -30.1447
lclavicle -4.96962e-015 -2.14687e-014
lhumerus -49.3456 9.50566 77.5379
lradius 46.4468
lwrist 14.6793
lhand -13.5215 50.0855
lfingers 7.12502
lthumb 12.5904 79.6861
rfemur -15.5975 -0.641906 27.2292
rtibia 39.4786
rfoot -17.4804 -13.7617
rtoes 17.1912
lfemur -19.7712 -6.52238 -15.1559
ltibia 42.6485
lfoot -18.4608 -4.53053
ltoes 1.77748
811
root 0.332463 17.8605 6.16592 -528.358 80.0402 -165.142
lowerback 22.604 -0.844326 -1.50458
upperback 2.96228 -0.637623 4.83855
thorax -9.3005 -0.0154818 6.41285
lowerneck -11.2456 0.803695 -1.30619
upperneck 19.3266 2.17116 -2.59591
head 7.8386 0.795972 -0.405979
rclavicle 4.37326e-015 3.10104e-014
rhumerus -56.2617 -27.4403 -52.451
rradius 94.6908
rwrist -41.7624
rhand -6.59765 -0.895452
rfingers 7.12502
rthumb 19.2578 -29.9619
lclavicle 4.37326e-015 3.10104e-014
lhumerus -49.5716 9.95159 77.358
lradius 46.4761
lwrist 14.6711
lhand -13.9055 50.1526
lfingers 7.12502
lthumb 12.2202 79.7756
rfemur -15.887 1.10487 25.5922
rtibia 39.5599
rfoot -21.1737 -10.5275
rtoes 37.6271
lfemur -20.2311 -5.97592 -16.3214
ltibia 42.7801
lfoot -19.2088 -3.55826
ltoes -1.06889
812
root 0.316572 17.8224 6.17453 -528.423 79.7571 -165.239
lowerback 22.5963 -0.402781 -1.18744
upperback 2.85146 -0.0349383 4.46599
thorax -9.49458 0.250983 5.6296
lowerneck -10.7696 0.564989 0.114115
upperneck 19.1649 1.64646 -3.0245
head 7.70583 0.616729 -0.837453
rclavicle -1.63003e-014 3.18055e-015
rhumerus -57.1118 -28.394 -50.9488
rradius 95.3837
rwrist -43.5342
rhand -3.66181 -0.845241
rfingers 7.12502
rthumb 22.0787 -29.6048
lclavicle -1.63003e-014 3.18055e-015
lhumerus -49.2592 7.85814 77.5835
lradius 46.3728
lwrist 15.2287
lhand -14.3959 50.1689
lfingers 7.12502
lthumb 11.7474 79.8195
rfemur -16.3453 -1.54889 26.2423
rtibia 39.4973
rfoot -17.1971 -13.934
rtoes 15.8261
lfemur -20.5825 -5.24004 -16.4571
ltibia 43.3944
lfoot -19.9339 -1.91995
ltoes -5.8366
813
root 0.285025 17.8478 6.17246 -522.001 79.3567 -158.28
lowerback 23.1574 -0.450581 0.332941
upperback 2.93726 0.341955 4.66757
thorax -9.7383 0.393154 4.86773
lowerneck -10.5996 0.678741 0.359914
upperneck 19.0908 1.7516 -3.00721
head 7.6539 0.689024 -0.862804
rclavicle -2.8625e-014 -2.22639e-014
rhumerus -56.8358 -28.4724 -50.2505
rradius 96.2572
rwrist -44.8747
rhand -1.27188 -0.929162
rfingers 7.12502
rthumb 24.3716 -29.3994
lclavicle -2.8625e-014 -2.22639e-014
lhumerus -49.2215 7.68603 77.503
lradius 46.3042
lwrist 15.2612
lhand -14.1403 50.0521
lfingers 7.12502
lthumb 11.9938 79.6884
rfemur -15.6134 0.0928453 27.1353
rtibia 39.4535
rfoot -20.7196 -10.5561
rtoes 36.0778
lfemur -20.2919 -5.20643 -14.8094
ltibia 43.8923
lfoot -20.402 -2.72701
ltoes 5.92647
